<?xml version="1.0" standalone="no"?>
<!DOCTYPE svg PUBLIC "-//W3C//DTD SVG 20010904//EN"
 "http://www.w3.org/TR/2001/REC-SVG-20010904/DTD/svg10.dtd">
<svg version="1.0" xmlns="http://www.w3.org/2000/svg"
 width="1280.000000pt" height="1078.000000pt" viewBox="0 0 1280.000000 1078.000000"
 preserveAspectRatio="xMidYMid meet">
<g transform="translate(0.000000,1078.000000) scale(0.100000,-0.100000)"
fill="#000000" stroke="none">
<path d="M4429 10757 c-36 -50 -197 -341 -255 -462 -114 -238 -225 -546 -263
-732 -82 -399 -36 -781 149 -1243 72 -181 115 -255 178 -305 31 -24 58 -43 59
-41 2 2 28 298 59 657 69 826 103 1201 109 1207 16 16 21 -46 32 -381 16 -522
32 -1006 43 -1322 5 -148 10 -296 10 -328 0 -32 4 -57 9 -55 23 8 157 189 184
248 60 132 169 493 211 702 107 527 42 1040 -200 1594 -74 168 -265 483 -294
483 -8 0 -22 -10 -31 -22z"/>
<path d="M135 9754 c-11 -2 -46 -6 -78 -9 -67 -8 -67 -8 -33 -110 105 -317
621 -925 1028 -1211 241 -169 470 -256 828 -313 157 -26 471 -57 703 -71 166
-11 185 -10 292 10 63 12 115 25 115 29 0 4 -114 72 -252 151 -588 335 -903
520 -1135 668 -125 79 -152 102 -119 102 23 0 212 -80 633 -265 598 -265 829
-353 939 -357 42 -2 74 14 74 37 0 21 -187 326 -258 421 -85 114 -284 312
-389 387 -285 203 -615 334 -1037 412 -344 63 -1180 139 -1311 119z"/>
<path d="M6456 9325 c-45 -16 -70 -44 -144 -164 -121 -195 -221 -417 -316
-702 -170 -515 -237 -962 -207 -1389 22 -304 60 -496 151 -771 84 -253 136
-359 175 -359 24 0 48 42 66 115 24 104 70 456 124 970 45 423 80 718 90 763
22 96 27 -67 41 -1260 l6 -546 22 -6 c39 -11 43 -6 86 87 96 205 229 733 274
1084 61 472 28 1032 -89 1488 -28 110 -208 675 -222 698 -6 9 -11 9 -57 -8z"/>
<path d="M3314 8191 c-35 -15 -61 -57 -73 -121 -21 -104 1 -139 130 -213 101
-58 267 -184 532 -404 465 -388 686 -593 876 -813 291 -336 729 -876 1122
-1382 886 -1141 866 -1119 1574 -1739 317 -277 395 -334 640 -470 499 -276
1028 -488 1706 -683 615 -177 1184 -288 1779 -346 321 -31 1067 -68 1132 -56
54 10 72 51 57 126 -16 77 -26 94 -69 119 -85 47 -253 76 -675 116 -557 53
-1034 126 -1620 251 -574 122 -933 235 -1450 454 -342 146 -502 233 -695 380
-42 32 -116 80 -165 108 -209 117 -260 150 -382 247 -180 144 -306 256 -467
414 -227 223 -285 295 -1291 1606 -797 1039 -839 1092 -977 1246 -172 190
-572 586 -655 648 -184 137 -566 378 -738 465 -93 47 -105 50 -185 53 -47 2
-95 -1 -106 -6z"/>
<path d="M8516 7612 c-23 -26 -263 -533 -319 -672 -124 -314 -211 -666 -270
-1095 -18 -135 -22 -206 -22 -455 0 -312 12 -460 61 -790 57 -386 117 -538
323 -822 123 -169 141 -191 141 -165 0 8 14 144 30 303 63 601 82 883 100
1429 18 549 22 635 30 635 5 0 11 -24 14 -52 5 -47 77 -1256 123 -2068 9 -157
19 -289 23 -293 8 -9 142 172 189 255 70 123 203 501 271 763 100 390 130 725
130 1472 l0 462 -153 253 c-295 488 -452 729 -524 806 -43 46 -54 52 -89 52
-27 0 -47 -6 -58 -18z"/>
<path d="M2720 7495 c-156 -37 -442 -122 -545 -162 -204 -80 -408 -202 -605
-363 -63 -52 -212 -190 -330 -306 l-215 -213 39 -40 c44 -45 64 -53 183 -75
290 -54 686 -90 993 -90 l265 -1 140 37 c526 138 707 226 1160 565 l194 144
-11 29 c-5 17 -15 30 -21 30 -7 0 -84 -14 -172 -30 -538 -103 -1202 -214
-1233 -208 -15 3 -15 5 3 15 11 6 193 65 405 131 680 214 917 299 939 339 32
61 -71 92 -504 148 -110 14 -265 35 -345 46 -213 31 -224 31 -340 4z"/>
<path d="M11242 7000 c-75 -32 -173 -181 -258 -393 -123 -308 -270 -898 -323
-1293 -47 -351 -50 -608 -10 -959 43 -384 104 -605 246 -889 73 -147 131 -238
281 -445 l127 -175 6 285 c4 156 12 851 18 1544 7 693 14 1276 17 1295 12 75
26 -10 69 -432 187 -1797 289 -2725 299 -2736 9 -8 239 442 266 523 119 340
201 1103 204 1880 1 319 1 320 -27 420 -43 159 -117 391 -159 505 -123 327
-386 713 -573 840 -39 27 -61 35 -105 37 -30 2 -65 -2 -78 -7z"/>
<path d="M4043 5769 c-302 -29 -579 -136 -1008 -388 -342 -202 -404 -258 -494
-444 -33 -67 -63 -134 -66 -149 -6 -24 -4 -28 32 -37 621 -164 928 -223 1260
-241 577 -31 1088 72 1602 322 132 65 151 77 219 147 41 42 83 89 95 105 l20
29 -49 -6 c-143 -19 -266 -30 -716 -62 -648 -46 -746 -51 -732 -36 14 16 302
68 689 126 450 67 627 107 689 156 53 42 28 97 -70 155 -133 78 -525 217 -785
278 -216 51 -459 67 -686 45z"/>
<path d="M5825 3434 c-16 -2 -77 -9 -135 -15 -58 -6 -150 -20 -205 -31 -432
-84 -767 -217 -1078 -425 -115 -78 -636 -482 -637 -495 0 -3 21 -6 46 -5 l47
2 16 -50 c20 -62 76 -109 260 -219 148 -88 326 -168 516 -231 382 -128 602
-162 979 -152 503 13 883 107 1341 332 204 100 321 175 569 366 l187 144 -38
3 c-21 2 -816 -36 -1767 -83 -1554 -77 -1855 -88 -1714 -61 18 3 377 49 798
101 1079 133 1910 239 2157 275 193 28 501 84 510 94 5 4 -140 93 -202 124
-114 56 -623 212 -856 261 -80 17 -197 37 -260 46 -109 15 -471 28 -534 19z"/>
<path d="M9395 1989 c-223 -19 -411 -82 -749 -250 -225 -112 -503 -285 -643
-401 -232 -191 -493 -444 -666 -646 -113 -132 -137 -164 -196 -262 -47 -78
-49 -85 -34 -102 31 -35 598 -202 858 -253 297 -59 613 -86 770 -66 50 6 133
16 185 22 298 34 626 136 928 287 256 128 481 294 740 546 121 117 532 553
532 563 0 5 -66 1 -147 -9 -213 -27 -492 -100 -1746 -458 -836 -237 -892 -245
-372 -52 149 55 407 151 575 212 886 325 1210 496 1210 640 0 23 -9 40 -30 60
-59 55 -329 136 -548 164 -133 17 -499 20 -667 5z"/>
</g>
</svg>
