<?xml version="1.0" standalone="no"?>
<!DOCTYPE svg PUBLIC "-//W3C//DTD SVG 20010904//EN"
 "http://www.w3.org/TR/2001/REC-SVG-20010904/DTD/svg10.dtd">
<svg version="1.0" xmlns="http://www.w3.org/2000/svg"
 width="500.000000pt" height="500.000000pt" viewBox="0 0 500.000000 500.000000"
 preserveAspectRatio="xMidYMid meet">
<metadata>
Created by potrace 1.16, written by Peter Selinger 2001-2019
</metadata>
<g transform="translate(0.000000,500.000000) scale(0.100000,-0.100000)"
fill="#000000" stroke="none">
<path d="M2158 4123 c-215 -3 -278 -14 -156 -27 70 -7 104 -25 119 -63 6 -16
8 -257 7 -639 l-3 -614 -27 -27 c-23 -23 -38 -28 -93 -31 -50 -3 -65 -8 -65
-19 0 -14 19 -15 138 -10 75 3 219 1 318 -5 215 -12 288 -3 393 47 l71 34 0
-48 c0 -62 -17 -111 -39 -111 -17 0 -44 -34 -34 -44 11 -11 23 -6 23 9 0 17
25 20 35 5 4 -6 11 -8 16 -5 5 4 13 -4 18 -17 l10 -23 0 23 c1 12 -8 29 -18
38 -15 14 -17 22 -10 48 5 17 9 54 8 82 -2 50 -1 53 45 93 27 24 53 38 59 34
9 -5 9 -3 0 8 -9 12 -8 21 9 47 11 18 24 32 29 32 5 0 9 10 9 22 0 12 6 46 12
75 15 63 28 66 83 23 45 -35 45 -36 45 -11 0 15 -5 18 -22 14 -17 -3 -19 -2
-10 5 20 14 10 47 -13 47 -11 0 -19 -6 -17 -13 3 -15 -49 -5 -60 12 -4 6 -8
-1 -8 -16 0 -14 -5 -49 -12 -77 -13 -58 -24 -56 -53 9 -18 40 -18 40 5 65 13
14 31 27 42 31 24 7 24 49 -2 118 -24 63 -86 138 -147 176 l-43 27 60 13 c69
15 141 2 177 -32 12 -11 28 -18 35 -15 9 4 8 6 -3 6 -22 1 -34 31 -13 31 8 0
13 4 9 10 -3 5 -12 7 -19 4 -8 -3 -38 2 -67 10 -44 14 -62 14 -112 4 -55 -12
-60 -11 -74 7 -15 19 -15 19 -11 -5 l4 -26 -50 18 c-28 9 -63 17 -77 18 -44 0
-40 11 11 37 73 36 145 106 177 170 22 46 27 71 27 127 1 87 -16 137 -62 188
-76 84 -184 119 -357 116 -55 -2 -198 -4 -317 -5z m429 -58 c187 -86 171 -448
-23 -540 -43 -20 -126 -31 -201 -27 l-53 3 0 237 c0 254 7 307 41 335 35 28
169 24 236 -8z m8 -640 c155 -43 245 -178 245 -369 0 -147 -44 -238 -142 -291
-48 -27 -63 -30 -168 -33 -96 -3 -121 0 -150 15 -67 34 -70 51 -70 390 l0 302
58 3 c82 5 169 -2 227 -17z"/>
<path d="M3294 3387 c10 -7 31 -22 45 -34 22 -19 23 -22 8 -23 -10 0 -15 -4
-12 -10 3 -5 -6 -12 -21 -16 -17 -4 -29 -2 -35 7 -7 12 -9 11 -9 -1 0 -13 -1
-13 -10 0 -8 12 -10 11 -10 -6 0 -19 3 -21 38 -13 20 4 47 11 60 14 23 8 52
-8 52 -29 0 -6 -13 -19 -29 -29 -17 -10 -65 -51 -109 -92 l-79 -75 -7 51 c-9
69 -16 58 -9 -14 l6 -58 28 27 c16 15 29 24 29 20 0 -5 36 26 81 68 44 42 84
76 89 76 4 0 11 -11 14 -25 9 -37 46 -34 46 3 0 28 2 29 99 51 54 12 107 28
117 37 17 13 14 13 -21 0 -46 -16 -79 -24 -152 -36 -49 -8 -54 -7 -82 19 l-30
28 52 21 c61 26 59 37 -3 17 -25 -7 -40 -14 -35 -15 6 0 2 -5 -9 -11 -11 -7
-21 -8 -25 -2 -10 15 -77 63 -87 62 -5 0 0 -6 10 -12z"/>
<path d="M1660 1780 c0 -5 -11 -12 -25 -16 -53 -13 -84 -94 -52 -136 16 -21
107 -72 107 -60 0 5 14 15 31 22 41 18 61 50 57 96 -2 31 -10 43 -38 61 -19
12 -40 27 -47 33 -15 13 -33 13 -33 0z"/>
<path d="M1893 1766 c-25 -22 -28 -31 -28 -86 0 -57 2 -64 33 -91 36 -33 67
-37 101 -13 25 18 51 71 51 105 0 34 -29 85 -56 98 -39 17 -70 13 -101 -13z
m102 -21 c51 -50 20 -155 -45 -155 -38 0 -60 32 -60 89 0 32 6 51 22 68 28 30
53 29 83 -2z"/>
<path d="M2363 1766 c-25 -22 -28 -31 -28 -86 0 -57 2 -64 33 -91 18 -16 43
-29 56 -29 33 0 73 34 86 76 36 108 -66 199 -147 130z m102 -21 c51 -50 20
-155 -45 -155 -38 0 -60 32 -60 89 0 32 6 51 22 68 28 30 53 29 83 -2z"/>
<path d="M2790 1680 c0 -91 3 -110 15 -110 11 0 15 11 15 40 0 39 1 40 34 40
39 0 76 37 76 76 0 34 -45 64 -96 64 l-44 0 0 -110z"/>
<path d="M3051 1767 c-52 -136 -69 -197 -57 -197 8 0 17 14 21 30 6 28 10 30
51 30 38 0 45 -4 59 -30 17 -32 40 -42 31 -12 -28 86 -75 197 -84 200 -7 2
-16 -7 -21 -21z"/>
<path d="M3310 1780 c0 -5 -11 -12 -25 -16 -53 -13 -84 -94 -52 -136 16 -21
107 -72 107 -60 0 5 14 15 31 22 41 18 61 50 57 96 -2 31 -10 43 -38 61 -19
12 -40 27 -47 33 -15 13 -33 13 -33 0z"/>
<path d="M1653 1246 c-89 -40 -90 -208 -3 -260 103 -60 208 73 156 199 -25 59
-94 87 -153 61z m103 -37 c20 -17 36 -85 28 -124 -3 -19 -17 -46 -31 -60 -60
-59 -133 -8 -133 92 0 47 4 58 30 85 26 25 36 29 62 24 17 -3 37 -11 44 -17z"/>
<path d="M3223 1246 c-90 -41 -89 -223 2 -264 81 -37 165 31 165 134 0 100
-85 166 -167 130z m80 -28 c64 -33 74 -138 19 -193 -59 -59 -132 -8 -132 92 0
47 4 59 29 84 32 31 50 35 84 17z"/>
<path d="M1050 1115 l0 -135 69 0 c79 0 107 16 117 67 9 46 -26 78 -94 88
l-52 7 0 38 0 39 63 3 c91 4 77 22 -20 26 l-83 3 0 -136z"/>
<path d="M1330 1115 c0 -113 2 -135 15 -135 11 0 15 12 15 50 l0 50 44 0 c64
0 96 29 96 85 0 65 -26 85 -107 85 l-63 0 0 -135z"/>
<path d="M1920 1115 c0 -113 2 -135 15 -135 12 0 15 14 15 65 l0 65 70 0 70 0
0 -65 c0 -59 2 -65 20 -65 20 0 20 5 18 132 -3 117 -5 133 -20 136 -16 3 -18
-5 -18 -58 l0 -61 -67 3 -68 3 -3 58 c-2 42 -7 57 -17 57 -12 0 -15 -24 -15
-135z"/>
<path d="M2240 1115 c0 -113 2 -135 15 -135 12 0 15 14 15 65 l0 65 70 0 70 0
0 -65 c0 -51 3 -65 15 -65 13 0 15 22 15 135 0 113 -2 135 -15 135 -12 0 -15
-13 -15 -60 l0 -61 -67 3 -68 3 -3 58 c-2 42 -7 57 -17 57 -12 0 -15 -24 -15
-135z"/>
<path d="M2560 1116 c0 -108 3 -136 14 -136 7 0 42 45 77 100 35 55 67 100 71
100 5 0 8 -45 8 -100 0 -82 3 -100 15 -100 13 0 15 22 15 135 0 174 -9 177
-100 28 l-65 -107 -5 104 c-3 70 -9 105 -17 108 -10 3 -13 -28 -13 -132z"/>
<path d="M2870 1115 c0 -113 2 -135 15 -135 12 0 15 14 15 65 0 93 23 89 99
-18 20 -27 42 -47 53 -47 23 0 21 4 -39 83 -47 61 -47 59 2 122 46 58 49 65
27 65 -11 0 -35 -23 -62 -60 -56 -77 -74 -76 -78 3 -2 42 -7 57 -17 57 -12 0
-15 -24 -15 -135z"/>
<path d="M3490 1115 l0 -135 70 0 c57 0 74 4 90 20 24 24 26 77 5 108 -12 16
-13 27 -5 41 31 58 -12 101 -101 101 l-59 0 0 -135z"/>
<path d="M3836 1241 c-3 -4 -26 -65 -51 -135 -37 -106 -42 -127 -28 -124 10 2
21 18 27 36 9 31 10 32 67 32 58 0 59 -1 73 -35 8 -19 21 -35 29 -35 15 0 10
16 -69 228 -15 39 -36 54 -48 33z"/>
<path d="M2582 800 c-85 -52 -79 -210 9 -256 83 -42 163 22 163 131 0 63 -24
108 -68 129 -44 21 -64 20 -104 -4z m109 -39 c25 -26 29 -37 29 -86 0 -49 -4
-60 -29 -86 -49 -49 -98 -36 -125 32 -26 65 -10 129 39 157 32 18 55 14 86
-17z"/>
<path d="M1380 675 l0 -135 68 0 c78 0 107 15 117 61 5 24 2 38 -15 61 -16 22
-19 33 -11 41 6 6 11 26 11 43 0 47 -29 64 -107 64 l-63 0 0 -135z"/>
<path d="M1660 675 c0 -173 9 -176 99 -35 34 55 67 100 72 100 5 0 9 -45 9
-100 0 -83 3 -100 15 -100 13 0 15 19 13 132 -4 172 -11 174 -98 33 -36 -57
-68 -105 -72 -105 -5 0 -8 47 -8 105 0 87 -3 105 -15 105 -13 0 -15 -22 -15
-135z"/>
<path d="M1980 675 c0 -113 2 -135 15 -135 12 0 15 14 15 65 0 94 13 90 117
-44 11 -13 26 -22 36 -20 13 3 6 17 -33 68 -28 35 -50 67 -50 72 0 5 18 32 40
60 43 54 48 69 26 69 -8 0 -34 -27 -58 -60 -54 -75 -72 -75 -76 3 -2 42 -7 57
-17 57 -12 0 -15 -24 -15 -135z"/>
<path d="M2860 675 c0 -113 2 -135 15 -135 11 0 15 12 15 49 l0 48 52 5 c63 6
88 32 88 88 0 56 -34 80 -111 80 l-59 0 0 -135z"/>
<path d="M3120 675 c0 -174 9 -176 100 -30 l65 105 3 -105 c2 -97 4 -105 22
-105 18 0 20 7 20 68 0 112 -11 202 -26 202 -7 0 -40 -45 -74 -100 -34 -55
-66 -102 -71 -106 -5 -3 -9 39 -9 100 0 88 -3 106 -15 106 -13 0 -15 -22 -15
-135z"/>
<path d="M3466 789 c-33 -26 -35 -75 -5 -113 l21 -27 -26 -49 c-30 -55 -31
-60 -13 -60 8 0 26 23 41 50 25 45 31 50 62 50 l34 0 0 -50 c0 -38 4 -50 15
-50 13 0 15 22 15 135 l0 135 -59 0 c-44 0 -65 -5 -85 -21z"/>
</g>
</svg>
